<?xml version="1.0" standalone="no"?>
<!DOCTYPE svg PUBLIC "-//W3C//DTD SVG 20010904//EN"
 "http://www.w3.org/TR/2001/REC-SVG-20010904/DTD/svg10.dtd">
<svg version="1.0" xmlns="http://www.w3.org/2000/svg"
 width="260.000000pt" height="260.000000pt" viewBox="0 0 260.000000 260.000000"
 preserveAspectRatio="xMidYMid meet">
<metadata>
Created by potrace 1.11, written by Peter Selinger 2001-2013
</metadata>
<g transform="translate(0.000000,260.000000) scale(0.100000,-0.100000)"
fill="#000000" stroke="none">
<path d="M0 1300 l0 -1300 1300 0 1300 0 0 1300 0 1300 -1300 0 -1300 0 0
-1300z m1240 783 c0 -5 -21 -68 -47 -140 l-47 -133 -143 0 -142 0 44 123 c24
67 46 130 50 140 6 15 23 17 146 17 76 0 139 -3 139 -7z m-208 -590 c-10 -27
-99 -265 -197 -530 l-180 -483 -139 0 c-128 0 -138 1 -131 18 4 9 40 109 81
222 41 113 125 343 187 512 l112 308 142 0 143 0 -18 -47z m608 38 c0 -4 -40
-116 -89 -247 -49 -132 -136 -365 -193 -519 l-103 -280 -138 -3 c-75 -1 -137
1 -137 4 0 4 86 243 192 531 l192 523 138 0 c76 0 138 -4 138 -9z m600 4 c0
-7 -105 -292 -261 -710 l-127 -340 -136 -3 c-75 -1 -136 0 -136 4 0 3 48 137
106 297 94 261 259 712 271 745 4 9 42 12 144 12 76 0 139 -2 139 -5z"/>
</g>
</svg>
