<?xml version="1.0" encoding="utf-8"?>
<!-- Generator: Adobe Illustrator 19.2.0, SVG Export Plug-In . SVG Version: 6.00 Build 0)  -->
<svg version="1.1" id="Calque_1" xmlns="http://www.w3.org/2000/svg" xmlns:xlink="http://www.w3.org/1999/xlink" x="0px" y="0px"
	 viewBox="0 0 373 268.4" style="enable-background:new 0 0 373 268.4;" xml:space="preserve">
<style type="text/css">
	.st0{fill:#EFEFEF;}
	.st1{fill:#DEDEDE;}
	.st2{fill:#FFFFFF;}
	.st3{fill:#FC6060;}
	.st4{fill:#F2E755;}
	.st5{fill:#79E279;}
	.st6{fill:#C4C4C4;}
	.st7{fill:#ADADAD;}
	.st8{fill:#949494;}
	.st9{fill:#C2C2C2;}
	.st10{opacity:0.1;fill:#212121;enable-background:new    ;}
	.st11{fill:#F5F5F5;}
	.st12{opacity:0.14;}
	.st13{fill:#FFFFFF;stroke:#FFFFFF;stroke-miterlimit:10;}
</style>
<g id="coding_space">
	<g id="window">
		<path class="st0" d="M304.6,252.2c0,3.4-2.8,6.2-6.2,6.2H93.8c-3.4,0-6.2-2.8-6.2-6.2V6.1c0-3.4,2.8-6.1,6.2-6.1h204.6
			c3.4,0,6.2,2.7,6.2,6.1V252.2z"/>
	</g>
	<g id="sidebar">
		<path class="st1" d="M142.3,258.4H93.8c-3.4,0-6.2-2.8-6.2-6.2V6.2h54.8V258.4z"/>
	</g>
	<g id="top">
		<path class="st2" d="M87.6,28.9V6.1c0-3.4,2.8-6.1,6.2-6.1h204.6c3.4,0,6.2,2.7,6.2,6.1v22.8H87.6z"/>
	</g>
	<g id="boutons">
		<circle class="st3" cx="99.4" cy="16" r="5.2"/>
		<circle class="st4" cx="113.4" cy="16" r="5.2"/>
		<circle class="st5" cx="127.3" cy="16" r="5.2"/>
	</g>
	<g id="side_code">
		<rect id="code" x="94.3" y="40.3" class="st6" width="20.7" height="4.1"/>
		<rect id="code_1_" x="94.3" y="48.1" class="st6" width="33.1" height="4.1"/>
		<rect id="code_2_" x="94.3" y="55.8" class="st6" width="20.7" height="4.1"/>
		<rect id="code_3_" x="106.7" y="64.1" class="st6" width="20.7" height="4.1"/>
		<rect id="code_4_" x="94.3" y="64.1" class="st6" width="9.3" height="4.1"/>
		<rect id="code_6_" x="106.7" y="79.6" class="st6" width="20.7" height="4.1"/>
		<rect id="code_5_" x="94.3" y="79.6" class="st6" width="9.3" height="4.1"/>
		<rect id="code_7_" x="94.3" y="87.3" class="st6" width="33.1" height="4.1"/>
	</g>
	<g id="fleche_2_">
		<polygon id="fleche" class="st7" points="173.3,50.4 157.8,60.7 157.8,51.4 173.3,41.1 		"/>
		<polygon id="fleche_1_" class="st7" points="157.8,60.2 173.3,70.5 173.3,61.2 157.8,50.9 		"/>
	</g>
	<g id="code_8_">
		<rect x="177.5" y="76.7" class="st8" width="18.6" height="9.3"/>
		<rect x="203.3" y="76.7" class="st7" width="39.3" height="9.3"/>
		<rect x="177.5" y="90.2" class="st7" width="39.3" height="9.3"/>
		<rect x="224" y="90.2" class="st5" width="12.4" height="9.3"/>
		<rect x="242.6" y="90.2" class="st8" width="24.8" height="9.3"/>
		<rect x="177.5" y="103.6" class="st9" width="62" height="9.3"/>
		<rect x="177.5" y="117" class="st7" width="98.2" height="9.3"/>
		<rect x="177.5" y="129.9" class="st8" width="12.4" height="9.3"/>
		<rect x="194.5" y="129.9" class="st3" width="22.2" height="9.3"/>
	</g>
	<rect id="shadow" x="87.6" y="28.9" class="st10" width="217" height="5.2"/>
</g>
<g id="keyboard">
	<path id="keyboard_1_" class="st11" d="M380,261.7c0,3.5-3.5,6.7-8.1,6.7H2.8c-4.7,0-8.8-3.1-8.8-6.7V152.1c0-3.5,4.2-4.1,8.8-4.1
		h369c4.7,0,8.1,0.5,8.1,4.1V261.7z"/>
	<path id="top_2_" class="st2" d="M0,165v-11.7c0-4.6,4-5.3,8.6-5.3h356.6c4.5,0,7.9,0.7,7.9,5.3V165H0z"/>
	<g id="keys_1_" class="st12">
		<path d="M72.6,260.2c0,2.5-2,4.5-4.5,4.5H50c-2.5,0-4.5-2-4.5-4.5v-18.1c0-2.5,2-4.5,4.5-4.5H68c2.5,0,4.5,2,4.5,4.5L72.6,260.2
			L72.6,260.2z"/>
		<path d="M105.1,260.2c0,2.5-2,4.5-4.5,4.5H82.5c-2.5,0-4.5-2-4.5-4.5v-18.1c0-2.5,2-4.5,4.5-4.5h18.1c2.5,0,4.5,2,4.5,4.5V260.2z"
			/>
		<path d="M137.7,260.2c0,2.5-2,4.5-4.5,4.5h-18.1c-2.5,0-4.5-2-4.5-4.5v-18.1c0-2.5,2-4.5,4.5-4.5h18.1c2.5,0,4.5,2,4.5,4.5V260.2z
			"/>
		<path d="M170.2,260.2c0,2.5-2,4.5-4.5,4.5h-18.1c-2.5,0-4.5-2-4.5-4.5v-18.1c0-2.5,2-4.5,4.5-4.5h18.1c2.5,0,4.5,2,4.5,4.5V260.2
			L170.2,260.2z"/>
		<path d="M201.4,260.2c0,2.5-2,4.5-4.5,4.5h-18.1c-2.5,0-4.5-2-4.5-4.5v-18.1c0-2.5,2-4.5,4.5-4.5h18.1c2.5,0,4.5,2,4.5,4.5V260.2z
			"/>
		<path d="M233.3,260.2c0,2.5-2,4.5-4.5,4.5h-18.1c-2.5,0-4.5-2-4.5-4.5v-18.1c0-2.5,2-4.5,4.5-4.5h18.1c2.5,0,4.5,2,4.5,4.5V260.2z
			"/>
		<path d="M265.2,260.2c0,2.5-2,4.5-4.5,4.5h-18.1c-2.5,0-4.5-2-4.5-4.5v-18.1c0-2.5,2-4.5,4.5-4.5h18.1c2.5,0,4.5,2,4.5,4.5V260.2z
			"/>
		<path d="M296.4,260.2c0,2.5-2,4.5-4.5,4.5h-18.1c-2.5,0-4.5-2-4.5-4.5v-18.1c0-2.5,2-4.5,4.5-4.5h18.1c2.5,0,4.5,2,4.5,4.5V260.2z
			"/>
		<path d="M40,260.2c0,2.5-2,4.5-4.5,4.5H10.6c-2.5,0-4.5-2-4.5-4.5v-18.1c0-2.5,2-4.5,4.5-4.5h24.9c2.5,0,4.5,2,4.5,4.5L40,260.2
			L40,260.2z"/>
		<path d="M367.6,259.5c0,2.5-2,4.5-4.5,4.5h-24.9c-2.5,0-4.5-2-4.5-4.5v-18.1c0-2.5,2-4.5,4.5-4.5h24.9c2.5,0,4.5,2,4.5,4.5V259.5z
			"/>
		<path d="M328.9,260.2c0,2.5-2,4.5-4.5,4.5h-18.1c-2.5,0-4.5-2-4.5-4.5v-18.1c0-2.5,2-4.5,4.5-4.5h18.1c2.5,0,4.5,2,4.5,4.5V260.2z
			"/>
		<path d="M88.8,229c0,2.5-2,4.5-4.5,4.5H66.2c-2.5,0-4.5-2-4.5-4.5v-18.1c0-2.5,2-4.5,4.5-4.5h18.1c2.5,0,4.5,2,4.5,4.5L88.8,229
			L88.8,229z"/>
		<path d="M121.4,229c0,2.5-2,4.5-4.5,4.5H98.8c-2.5,0-4.5-2-4.5-4.5v-18.1c0-2.5,2-4.5,4.5-4.5h18.1c2.5,0,4.5,2,4.5,4.5L121.4,229
			L121.4,229z"/>
		<path d="M153.9,229c0,2.5-2,4.5-4.5,4.5h-18.1c-2.5,0-4.5-2-4.5-4.5v-18.1c0-2.5,2-4.5,4.5-4.5h18.1c2.5,0,4.5,2,4.5,4.5V229z"/>
		<path d="M185.8,229c0,2.5-2,4.5-4.5,4.5h-18.1c-2.5,0-4.5-2-4.5-4.5v-18.1c0-2.5,2-4.5,4.5-4.5h18.1c2.5,0,4.5,2,4.5,4.5V229z"/>
		<path d="M217,229c0,2.5-2,4.5-4.5,4.5h-18.1c-2.5,0-4.5-2-4.5-4.5v-18.1c0-2.5,2-4.5,4.5-4.5h18.1c2.5,0,4.5,2,4.5,4.5V229z"/>
		<path d="M249.6,229c0,2.5-2,4.5-4.5,4.5H227c-2.5,0-4.5-2-4.5-4.5v-18.1c0-2.5,2-4.5,4.5-4.5h18.1c2.5,0,4.5,2,4.5,4.5V229z"/>
		<path d="M281.4,229c0,2.5-2,4.5-4.5,4.5h-18.1c-2.5,0-4.5-2-4.5-4.5v-18.1c0-2.5,2-4.5,4.5-4.5h18.1c2.5,0,4.5,2,4.5,4.5V229z"/>
		<path d="M57,229c0,2.5-2,4.5-4.5,4.5H10.6c-2.5,0-4.5-2-4.5-4.5v-18.1c0-2.5,2-4.5,4.5-4.5h41.8c2.5,0,4.5,2,4.5,4.5V229z"/>
		<path d="M367.6,229c0,2.5-2,4.5-4.5,4.5h-41.8c-2.5,0-4.5-2-4.5-4.5v-18.1c0-2.5,2-4.5,4.5-4.5h41.8c2.5,0,4.5,2,4.5,4.5V229z"/>
		<path d="M312,229c0,2.5-2,4.5-4.5,4.5h-18.1c-2.5,0-4.5-2-4.5-4.5v-18.1c0-2.5,2-4.5,4.5-4.5h18.1c2.5,0,4.5,2,4.5,4.5V229z"/>
		<path d="M46.1,194.4c0,2.5-2,4.5-4.5,4.5h-31c-2.5,0-4.5-2-4.5-4.5v-7.2c0-2.5,2-4.5,4.5-4.5h31c2.5,0,4.5,2,4.5,4.5V194.4z"/>
		<path d="M78,194.4c0,2.5-2,4.5-4.5,4.5H55.4c-2.5,0-4.5-2-4.5-4.5v-7.2c0-2.5,2-4.5,4.5-4.5h18.1c2.5,0,4.5,2,4.5,4.5V194.4z"/>
		<path d="M109.2,194.4c0,2.5-2,4.5-4.5,4.5H86.6c-2.5,0-4.5-2-4.5-4.5v-7.2c0-2.5,2-4.5,4.5-4.5h18.1c2.5,0,4.5,2,4.5,4.5V194.4z"
			/>
		<path d="M141.7,194.4c0,2.5-2,4.5-4.5,4.5h-18.1c-2.5,0-4.5-2-4.5-4.5v-7.2c0-2.5,2-4.5,4.5-4.5h18.1c2.5,0,4.5,2,4.5,4.5V194.4z"
			/>
		<path d="M174.3,194.4c0,2.5-2,4.5-4.5,4.5h-18.1c-2.5,0-4.5-2-4.5-4.5v-7.2c0-2.5,2-4.5,4.5-4.5h18.1c2.5,0,4.5,2,4.5,4.5V194.4z"
			/>
		<path d="M206.8,194.4c0,2.5-2,4.5-4.5,4.5h-18.1c-2.5,0-4.5-2-4.5-4.5v-7.2c0-2.5,2-4.5,4.5-4.5h18.1c2.5,0,4.5,2,4.5,4.5V194.4z"
			/>
		<path d="M238.7,194.4c0,2.5-2,4.5-4.5,4.5h-18.1c-2.5,0-4.5-2-4.5-4.5v-7.2c0-2.5,2-4.5,4.5-4.5h18.1c2.5,0,4.5,2,4.5,4.5V194.4z"
			/>
		<path d="M270.6,194.4c0,2.5-2,4.5-4.5,4.5H248c-2.5,0-4.5-2-4.5-4.5v-7.2c0-2.5,2-4.5,4.5-4.5h18.1c2.5,0,4.5,2,4.5,4.5V194.4z"/>
		<path d="M303.1,194.4c0,2.5-2,4.5-4.5,4.5h-18.1c-2.5,0-4.5-2-4.5-4.5v-7.2c0-2.5,2-4.5,4.5-4.5h18.1c2.5,0,4.5,2,4.5,4.5V194.4z"
			/>
		<path d="M366.2,194.4c0,2.5-2,4.5-4.5,4.5h-18.1c-2.5,0-4.5-2-4.5-4.5v-7.2c0-2.5,2-4.5,4.5-4.5h18.1c2.5,0,4.5,2,4.5,4.5V194.4z"
			/>
		<path d="M334.3,194.4c0,2.5-2,4.5-4.5,4.5h-18.1c-2.5,0-4.5-2-4.5-4.5v-7.2c0-2.5,2-4.5,4.5-4.5h18.1c2.5,0,4.5,2,4.5,4.5V194.4z"
			/>
	</g>
	<g id="keys">
		<path class="st13" d="M71.5,258.5c0,2.5-2,4.5-4.5,4.5H48.9c-2.5,0-4.5-2-4.5-4.5v-18.1c0-2.5,2-4.5,4.5-4.5H67
			c2.5,0,4.5,2,4.5,4.5L71.5,258.5L71.5,258.5z"/>
		<path class="st13" d="M104.1,258.5c0,2.5-2,4.5-4.5,4.5H81.5c-2.5,0-4.5-2-4.5-4.5v-18.1c0-2.5,2-4.5,4.5-4.5h18.1
			c2.5,0,4.5,2,4.5,4.5V258.5z"/>
		<path class="st13" d="M136.7,258.5c0,2.5-2,4.5-4.5,4.5H114c-2.5,0-4.5-2-4.5-4.5v-18.1c0-2.5,2-4.5,4.5-4.5h18.1
			c2.5,0,4.5,2,4.5,4.5V258.5z"/>
		<path class="st13" d="M169.2,258.5c0,2.5-2,4.5-4.5,4.5h-18.1c-2.5,0-4.5-2-4.5-4.5v-18.1c0-2.5,2-4.5,4.5-4.5h18.1
			c2.5,0,4.5,2,4.5,4.5V258.5z"/>
		<path class="st13" d="M200.4,258.5c0,2.5-2,4.5-4.5,4.5h-18.1c-2.5,0-4.5-2-4.5-4.5v-18.1c0-2.5,2-4.5,4.5-4.5h18.1
			c2.5,0,4.5,2,4.5,4.5V258.5z"/>
		<path class="st13" d="M232.3,258.5c0,2.5-2,4.5-4.5,4.5h-18.1c-2.5,0-4.5-2-4.5-4.5v-18.1c0-2.5,2-4.5,4.5-4.5h18.1
			c2.5,0,4.5,2,4.5,4.5V258.5z"/>
		<path class="st13" d="M264.2,258.5c0,2.5-2,4.5-4.5,4.5h-18.1c-2.5,0-4.5-2-4.5-4.5v-18.1c0-2.5,2-4.5,4.5-4.5h18.1
			c2.5,0,4.5,2,4.5,4.5V258.5z"/>
		<path class="st13" d="M295.3,258.5c0,2.5-2,4.5-4.5,4.5h-18.1c-2.5,0-4.5-2-4.5-4.5v-18.1c0-2.5,2-4.5,4.5-4.5h18.1
			c2.5,0,4.5,2,4.5,4.5V258.5z"/>
		<path class="st13" d="M39,258.5c0,2.5-2,4.5-4.5,4.5H9.6c-2.5,0-4.5-2-4.5-4.5v-18.1c0-2.5,2-4.5,4.5-4.5h24.9
			c2.5,0,4.5,2,4.5,4.5L39,258.5L39,258.5z"/>
		<path class="st13" d="M366.6,257.8c0,2.5-2,4.5-4.5,4.5h-24.9c-2.5,0-4.5-2-4.5-4.5v-18.1c0-2.5,2-4.5,4.5-4.5H362
			c2.5,0,4.5,2,4.5,4.5V257.8z"/>
		<path class="st13" d="M327.9,258.5c0,2.5-2,4.5-4.5,4.5h-18.1c-2.5,0-4.5-2-4.5-4.5v-18.1c0-2.5,2-4.5,4.5-4.5h18.1
			c2.5,0,4.5,2,4.5,4.5V258.5z"/>
		<path class="st13" d="M87.8,227.3c0,2.5-2,4.5-4.5,4.5H65.2c-2.5,0-4.5-2-4.5-4.5v-18.1c0-2.5,2-4.5,4.5-4.5h18.1
			c2.5,0,4.5,2,4.5,4.5L87.8,227.3L87.8,227.3z"/>
		<path class="st13" d="M120.4,227.3c0,2.5-2,4.5-4.5,4.5H97.8c-2.5,0-4.5-2-4.5-4.5v-18.1c0-2.5,2-4.5,4.5-4.5h18.1
			c2.5,0,4.5,2,4.5,4.5V227.3z"/>
		<path class="st13" d="M152.9,227.3c0,2.5-2,4.5-4.5,4.5h-18.1c-2.5,0-4.5-2-4.5-4.5v-18.1c0-2.5,2-4.5,4.5-4.5h18.1
			c2.5,0,4.5,2,4.5,4.5V227.3z"/>
		<path class="st13" d="M184.8,227.3c0,2.5-2,4.5-4.5,4.5h-18.1c-2.5,0-4.5-2-4.5-4.5v-18.1c0-2.5,2-4.5,4.5-4.5h18.1
			c2.5,0,4.5,2,4.5,4.5V227.3z"/>
		<path class="st13" d="M216,227.3c0,2.5-2,4.5-4.5,4.5h-18.1c-2.5,0-4.5-2-4.5-4.5v-18.1c0-2.5,2-4.5,4.5-4.5h18.1
			c2.5,0,4.5,2,4.5,4.5V227.3z"/>
		<path class="st13" d="M248.6,227.3c0,2.5-2,4.5-4.5,4.5h-18.1c-2.5,0-4.5-2-4.5-4.5v-18.1c0-2.5,2-4.5,4.5-4.5H244
			c2.5,0,4.5,2,4.5,4.5V227.3z"/>
		<path class="st13" d="M280.4,227.3c0,2.5-2,4.5-4.5,4.5h-18.1c-2.5,0-4.5-2-4.5-4.5v-18.1c0-2.5,2-4.5,4.5-4.5h18.1
			c2.5,0,4.5,2,4.5,4.5V227.3z"/>
		<path class="st13" d="M56,227.3c0,2.5-2,4.5-4.5,4.5H9.6c-2.5,0-4.5-2-4.5-4.5v-18.1c0-2.5,2-4.5,4.5-4.5h41.8
			c2.5,0,4.5,2,4.5,4.5V227.3z"/>
		<path class="st13" d="M366.6,227.3c0,2.5-2,4.5-4.5,4.5h-41.8c-2.5,0-4.5-2-4.5-4.5v-18.1c0-2.5,2-4.5,4.5-4.5H362
			c2.5,0,4.5,2,4.5,4.5V227.3z"/>
		<path class="st13" d="M310.9,227.3c0,2.5-2,4.5-4.5,4.5h-18.1c-2.5,0-4.5-2-4.5-4.5v-18.1c0-2.5,2-4.5,4.5-4.5h18.1
			c2.5,0,4.5,2,4.5,4.5V227.3z"/>
		<path class="st13" d="M45.1,192.7c0,2.5-2,4.5-4.5,4.5h-31c-2.5,0-4.5-2-4.5-4.5v-7.2c0-2.5,2-4.5,4.5-4.5h31c2.5,0,4.5,2,4.5,4.5
			V192.7z"/>
		<path class="st13" d="M77,192.7c0,2.5-2,4.5-4.5,4.5H54.4c-2.5,0-4.5-2-4.5-4.5v-7.2c0-2.5,2-4.5,4.5-4.5h18.1
			c2.5,0,4.5,2,4.5,4.5V192.7z"/>
		<path class="st13" d="M108.2,192.7c0,2.5-2,4.5-4.5,4.5H85.6c-2.5,0-4.5-2-4.5-4.5v-7.2c0-2.5,2-4.5,4.5-4.5h18.1
			c2.5,0,4.5,2,4.5,4.5V192.7z"/>
		<path class="st13" d="M140.7,192.7c0,2.5-2,4.5-4.5,4.5h-18.1c-2.5,0-4.5-2-4.5-4.5v-7.2c0-2.5,2-4.5,4.5-4.5h18.1
			c2.5,0,4.5,2,4.5,4.5V192.7z"/>
		<path class="st13" d="M173.3,192.7c0,2.5-2,4.5-4.5,4.5h-18.1c-2.5,0-4.5-2-4.5-4.5v-7.2c0-2.5,2-4.5,4.5-4.5h18.1
			c2.5,0,4.5,2,4.5,4.5V192.7z"/>
		<path class="st13" d="M205.8,192.7c0,2.5-2,4.5-4.5,4.5h-18.1c-2.5,0-4.5-2-4.5-4.5v-7.2c0-2.5,2-4.5,4.5-4.5h18.1
			c2.5,0,4.5,2,4.5,4.5V192.7z"/>
		<path class="st13" d="M237.7,192.7c0,2.5-2,4.5-4.5,4.5h-18.1c-2.5,0-4.5-2-4.5-4.5v-7.2c0-2.5,2-4.5,4.5-4.5h18.1
			c2.5,0,4.5,2,4.5,4.5V192.7z"/>
		<path class="st13" d="M269.6,192.7c0,2.5-2,4.5-4.5,4.5H247c-2.5,0-4.5-2-4.5-4.5v-7.2c0-2.5,2-4.5,4.5-4.5h18.1
			c2.5,0,4.5,2,4.5,4.5V192.7z"/>
		<path class="st13" d="M302.1,192.7c0,2.5-2,4.5-4.5,4.5h-18.1c-2.5,0-4.5-2-4.5-4.5v-7.2c0-2.5,2-4.5,4.5-4.5h18.1
			c2.5,0,4.5,2,4.5,4.5V192.7z"/>
		<path class="st13" d="M365.2,192.7c0,2.5-2,4.5-4.5,4.5h-18.1c-2.5,0-4.5-2-4.5-4.5v-7.2c0-2.5,2-4.5,4.5-4.5h18.1
			c2.5,0,4.5,2,4.5,4.5V192.7z"/>
		<path class="st13" d="M333.3,192.7c0,2.5-2,4.5-4.5,4.5h-18.1c-2.5,0-4.5-2-4.5-4.5v-7.2c0-2.5,2-4.5,4.5-4.5h18.1
			c2.5,0,4.5,2,4.5,4.5V192.7z"/>
	</g>
</g>
</svg>
