<svg id="cv-icon" xmlns="http://www.w3.org/2000/svg" viewBox="0 0 95.55 100.77"><title>cv-icon</title><g id="page"><rect width="72.95" height="100.77" style="fill:#fff"/><rect x="9.39" y="24.22" width="54.17" height="2.44" style="fill:#949393"/><rect x="9.39" y="33.85" width="54.17" height="2.44" style="fill:#adacac"/><rect x="9.39" y="43.48" width="54.17" height="2.44" style="fill:#c2c1c1"/><rect x="9.39" y="53.11" width="54.17" height="2.44" style="fill:#c2c1c1"/><rect x="9.39" y="62.74" width="34.17" height="2.44" style="fill:#adacac"/></g><g id="magnifying-glass-shadow" style="opacity:0.24"><rect x="76.92" y="47.78" width="2.41" height="5.68" transform="translate(-12.91 70.07) rotate(-45)" style="fill:#565656"/><path d="M91.16,59.16c5.58,5.58,4.7,6.71,3.46,8s-2.37,2.13-8-3.46-10-10.23-7.86-12.36S85.58,53.57,91.16,59.16Z" style="fill:#565656"/><path d="M49.39,21.88a19.9,19.9,0,1,0,28.14,0A19.9,19.9,0,0,0,49.39,21.88ZM74.28,46.77a15.3,15.3,0,1,1,0-21.63A15.3,15.3,0,0,1,74.28,46.77Z" style="fill:#565656"/></g><g id="magnifying-glass"><rect x="76.92" y="47.09" width="2.41" height="5.68" transform="translate(-12.42 69.87) rotate(-45)" style="fill:#fc5f5f"/><path d="M91.16,58.47c5.58,5.58,4.7,6.71,3.46,8s-2.37,2.13-8-3.46-10-10.23-7.86-12.36S85.58,52.88,91.16,58.47Z" style="fill:#fff"/><path d="M49.39,21.19a19.9,19.9,0,1,0,28.14,0A19.9,19.9,0,0,0,49.39,21.19ZM74.28,46.08a15.3,15.3,0,1,1,0-21.63A15.3,15.3,0,0,1,74.28,46.08Z" style="fill:#fc5f5f"/></g></svg>