<svg id="Calque_1" xmlns="http://www.w3.org/2000/svg" viewBox="0 0 373 268.4"><style>.st0{fill:#efefef}.st1{fill:#dedede}.st2{fill:#fff}.st3{fill:#fc6060}.st4{fill:#f2e755}.st5{fill:#79e279}.st6{fill:#c4c4c4}.st7{fill:#adadad}.st8{fill:#949494}.st9{fill:#c2c2c2}.st10{opacity:.1;fill:#212121;enable-background:new}.st11{fill:#f5f5f5}.st12{opacity:.14}.st13{fill:#fff;stroke:#fff;stroke-miterlimit:10}</style><g id="coding_space"><path class="st0" d="M304.6 252.2c0 3.4-2.8 6.2-6.2 6.2H93.8c-3.4 0-6.2-2.8-6.2-6.2V6.1c0-3.4 2.8-6.1 6.2-6.1h204.6c3.4 0 6.2 2.7 6.2 6.1v246.1z" id="window"/><path class="st1" d="M142.3 258.4H93.8c-3.4 0-6.2-2.8-6.2-6.2V6.2h54.8v252.2z" id="sidebar"/><path class="st2" d="M87.6 28.9V6.1c0-3.4 2.8-6.1 6.2-6.1h204.6c3.4 0 6.2 2.7 6.2 6.1v22.8h-217z" id="top"/><g id="boutons"><circle class="st3" cx="99.4" cy="16" r="5.2"/><circle class="st4" cx="113.4" cy="16" r="5.2"/><circle class="st5" cx="127.3" cy="16" r="5.2"/></g><g id="side_code"><path id="code" class="st6" d="M94.3 40.3H115v4.1H94.3z"/><path id="code_1_" class="st6" d="M94.3 48.1h33.1v4.1H94.3z"/><path id="code_2_" class="st6" d="M94.3 55.8H115v4.1H94.3z"/><path id="code_3_" class="st6" d="M106.7 64.1h20.7v4.1h-20.7z"/><path id="code_4_" class="st6" d="M94.3 64.1h9.3v4.1h-9.3z"/><path id="code_6_" class="st6" d="M106.7 79.6h20.7v4.1h-20.7z"/><path id="code_5_" class="st6" d="M94.3 79.6h9.3v4.1h-9.3z"/><path id="code_7_" class="st6" d="M94.3 87.3h33.1v4.1H94.3z"/></g><g id="fleche_2_"><path id="fleche" class="st7" d="M173.3 50.4l-15.5 10.3v-9.3l15.5-10.3z"/><path id="fleche_1_" class="st7" d="M157.8 60.2l15.5 10.3v-9.3l-15.5-10.3z"/></g><g id="code_8_"><path class="st8" d="M177.5 76.7h18.6V86h-18.6z"/><path class="st7" d="M203.3 76.7h39.3V86h-39.3zM177.5 90.2h39.3v9.3h-39.3z"/><path class="st5" d="M224 90.2h12.4v9.3H224z"/><path class="st8" d="M242.6 90.2h24.8v9.3h-24.8z"/><path class="st9" d="M177.5 103.6h62v9.3h-62z"/><path class="st7" d="M177.5 117h98.2v9.3h-98.2z"/><path class="st8" d="M177.5 129.9h12.4v9.3h-12.4z"/><path class="st3" d="M194.5 129.9h22.2v9.3h-22.2z"/></g><path id="shadow" class="st10" d="M87.6 28.9h217v5.2h-217z"/></g><g id="keyboard"><path id="keyboard_1_" class="st11" d="M380 261.7c0 3.5-3.5 6.7-8.1 6.7H2.8c-4.7 0-8.8-3.1-8.8-6.7V152.1c0-3.5 4.2-4.1 8.8-4.1h369c4.7 0 8.1.5 8.1 4.1v109.6z"/><path id="top_2_" class="st2" d="M0 165v-11.7c0-4.6 4-5.3 8.6-5.3h356.6c4.5 0 7.9.7 7.9 5.3V165H0z"/><g id="keys_1_" class="st12"><path d="M72.6 260.2c0 2.5-2 4.5-4.5 4.5H50c-2.5 0-4.5-2-4.5-4.5v-18.1c0-2.5 2-4.5 4.5-4.5h18c2.5 0 4.5 2 4.5 4.5l.1 18.1zM105.1 260.2c0 2.5-2 4.5-4.5 4.5H82.5c-2.5 0-4.5-2-4.5-4.5v-18.1c0-2.5 2-4.5 4.5-4.5h18.1c2.5 0 4.5 2 4.5 4.5v18.1zM137.7 260.2c0 2.5-2 4.5-4.5 4.5h-18.1c-2.5 0-4.5-2-4.5-4.5v-18.1c0-2.5 2-4.5 4.5-4.5h18.1c2.5 0 4.5 2 4.5 4.5v18.1zM170.2 260.2c0 2.5-2 4.5-4.5 4.5h-18.1c-2.5 0-4.5-2-4.5-4.5v-18.1c0-2.5 2-4.5 4.5-4.5h18.1c2.5 0 4.5 2 4.5 4.5v18.1zM201.4 260.2c0 2.5-2 4.5-4.5 4.5h-18.1c-2.5 0-4.5-2-4.5-4.5v-18.1c0-2.5 2-4.5 4.5-4.5h18.1c2.5 0 4.5 2 4.5 4.5v18.1zM233.3 260.2c0 2.5-2 4.5-4.5 4.5h-18.1c-2.5 0-4.5-2-4.5-4.5v-18.1c0-2.5 2-4.5 4.5-4.5h18.1c2.5 0 4.5 2 4.5 4.5v18.1zM265.2 260.2c0 2.5-2 4.5-4.5 4.5h-18.1c-2.5 0-4.5-2-4.5-4.5v-18.1c0-2.5 2-4.5 4.5-4.5h18.1c2.5 0 4.5 2 4.5 4.5v18.1zM296.4 260.2c0 2.5-2 4.5-4.5 4.5h-18.1c-2.5 0-4.5-2-4.5-4.5v-18.1c0-2.5 2-4.5 4.5-4.5h18.1c2.5 0 4.5 2 4.5 4.5v18.1zM40 260.2c0 2.5-2 4.5-4.5 4.5H10.6c-2.5 0-4.5-2-4.5-4.5v-18.1c0-2.5 2-4.5 4.5-4.5h24.9c2.5 0 4.5 2 4.5 4.5v18.1zM367.6 259.5c0 2.5-2 4.5-4.5 4.5h-24.9c-2.5 0-4.5-2-4.5-4.5v-18.1c0-2.5 2-4.5 4.5-4.5h24.9c2.5 0 4.5 2 4.5 4.5v18.1zM328.9 260.2c0 2.5-2 4.5-4.5 4.5h-18.1c-2.5 0-4.5-2-4.5-4.5v-18.1c0-2.5 2-4.5 4.5-4.5h18.1c2.5 0 4.5 2 4.5 4.5v18.1zM88.8 229c0 2.5-2 4.5-4.5 4.5H66.2c-2.5 0-4.5-2-4.5-4.5v-18.1c0-2.5 2-4.5 4.5-4.5h18.1c2.5 0 4.5 2 4.5 4.5V229zM121.4 229c0 2.5-2 4.5-4.5 4.5H98.8c-2.5 0-4.5-2-4.5-4.5v-18.1c0-2.5 2-4.5 4.5-4.5h18.1c2.5 0 4.5 2 4.5 4.5V229zM153.9 229c0 2.5-2 4.5-4.5 4.5h-18.1c-2.5 0-4.5-2-4.5-4.5v-18.1c0-2.5 2-4.5 4.5-4.5h18.1c2.5 0 4.5 2 4.5 4.5V229zM185.8 229c0 2.5-2 4.5-4.5 4.5h-18.1c-2.5 0-4.5-2-4.5-4.5v-18.1c0-2.5 2-4.5 4.5-4.5h18.1c2.5 0 4.5 2 4.5 4.5V229zM217 229c0 2.5-2 4.5-4.5 4.5h-18.1c-2.5 0-4.5-2-4.5-4.5v-18.1c0-2.5 2-4.5 4.5-4.5h18.1c2.5 0 4.5 2 4.5 4.5V229zM249.6 229c0 2.5-2 4.5-4.5 4.5H227c-2.5 0-4.5-2-4.5-4.5v-18.1c0-2.5 2-4.5 4.5-4.5h18.1c2.5 0 4.5 2 4.5 4.5V229zM281.4 229c0 2.5-2 4.5-4.5 4.5h-18.1c-2.5 0-4.5-2-4.5-4.5v-18.1c0-2.5 2-4.5 4.5-4.5h18.1c2.5 0 4.5 2 4.5 4.5V229zM57 229c0 2.5-2 4.5-4.5 4.5H10.6c-2.5 0-4.5-2-4.5-4.5v-18.1c0-2.5 2-4.5 4.5-4.5h41.8c2.5 0 4.5 2 4.5 4.5V229zM367.6 229c0 2.5-2 4.5-4.5 4.5h-41.8c-2.5 0-4.5-2-4.5-4.5v-18.1c0-2.5 2-4.5 4.5-4.5h41.8c2.5 0 4.5 2 4.5 4.5V229zM312 229c0 2.5-2 4.5-4.5 4.5h-18.1c-2.5 0-4.5-2-4.5-4.5v-18.1c0-2.5 2-4.5 4.5-4.5h18.1c2.5 0 4.5 2 4.5 4.5V229zM46.1 194.4c0 2.5-2 4.5-4.5 4.5h-31c-2.5 0-4.5-2-4.5-4.5v-7.2c0-2.5 2-4.5 4.5-4.5h31c2.5 0 4.5 2 4.5 4.5v7.2zM78 194.4c0 2.5-2 4.5-4.5 4.5H55.4c-2.5 0-4.5-2-4.5-4.5v-7.2c0-2.5 2-4.5 4.5-4.5h18.1c2.5 0 4.5 2 4.5 4.5v7.2zM109.2 194.4c0 2.5-2 4.5-4.5 4.5H86.6c-2.5 0-4.5-2-4.5-4.5v-7.2c0-2.5 2-4.5 4.5-4.5h18.1c2.5 0 4.5 2 4.5 4.5v7.2zM141.7 194.4c0 2.5-2 4.5-4.5 4.5h-18.1c-2.5 0-4.5-2-4.5-4.5v-7.2c0-2.5 2-4.5 4.5-4.5h18.1c2.5 0 4.5 2 4.5 4.5v7.2zM174.3 194.4c0 2.5-2 4.5-4.5 4.5h-18.1c-2.5 0-4.5-2-4.5-4.5v-7.2c0-2.5 2-4.5 4.5-4.5h18.1c2.5 0 4.5 2 4.5 4.5v7.2zM206.8 194.4c0 2.5-2 4.5-4.5 4.5h-18.1c-2.5 0-4.5-2-4.5-4.5v-7.2c0-2.5 2-4.5 4.5-4.5h18.1c2.5 0 4.5 2 4.5 4.5v7.2zM238.7 194.4c0 2.5-2 4.5-4.5 4.5h-18.1c-2.5 0-4.5-2-4.5-4.5v-7.2c0-2.5 2-4.5 4.5-4.5h18.1c2.5 0 4.5 2 4.5 4.5v7.2zM270.6 194.4c0 2.5-2 4.5-4.5 4.5H248c-2.5 0-4.5-2-4.5-4.5v-7.2c0-2.5 2-4.5 4.5-4.5h18.1c2.5 0 4.5 2 4.5 4.5v7.2zM303.1 194.4c0 2.5-2 4.5-4.5 4.5h-18.1c-2.5 0-4.5-2-4.5-4.5v-7.2c0-2.5 2-4.5 4.5-4.5h18.1c2.5 0 4.5 2 4.5 4.5v7.2zM366.2 194.4c0 2.5-2 4.5-4.5 4.5h-18.1c-2.5 0-4.5-2-4.5-4.5v-7.2c0-2.5 2-4.5 4.5-4.5h18.1c2.5 0 4.5 2 4.5 4.5v7.2zM334.3 194.4c0 2.5-2 4.5-4.5 4.5h-18.1c-2.5 0-4.5-2-4.5-4.5v-7.2c0-2.5 2-4.5 4.5-4.5h18.1c2.5 0 4.5 2 4.5 4.5v7.2z"/></g><g id="keys"><path class="st13" d="M71.5 258.5c0 2.5-2 4.5-4.5 4.5H48.9c-2.5 0-4.5-2-4.5-4.5v-18.1c0-2.5 2-4.5 4.5-4.5H67c2.5 0 4.5 2 4.5 4.5v18.1zM104.1 258.5c0 2.5-2 4.5-4.5 4.5H81.5c-2.5 0-4.5-2-4.5-4.5v-18.1c0-2.5 2-4.5 4.5-4.5h18.1c2.5 0 4.5 2 4.5 4.5v18.1zM136.7 258.5c0 2.5-2 4.5-4.5 4.5H114c-2.5 0-4.5-2-4.5-4.5v-18.1c0-2.5 2-4.5 4.5-4.5h18.1c2.5 0 4.5 2 4.5 4.5v18.1zM169.2 258.5c0 2.5-2 4.5-4.5 4.5h-18.1c-2.5 0-4.5-2-4.5-4.5v-18.1c0-2.5 2-4.5 4.5-4.5h18.1c2.5 0 4.5 2 4.5 4.5v18.1zM200.4 258.5c0 2.5-2 4.5-4.5 4.5h-18.1c-2.5 0-4.5-2-4.5-4.5v-18.1c0-2.5 2-4.5 4.5-4.5h18.1c2.5 0 4.5 2 4.5 4.5v18.1zM232.3 258.5c0 2.5-2 4.5-4.5 4.5h-18.1c-2.5 0-4.5-2-4.5-4.5v-18.1c0-2.5 2-4.5 4.5-4.5h18.1c2.5 0 4.5 2 4.5 4.5v18.1zM264.2 258.5c0 2.5-2 4.5-4.5 4.5h-18.1c-2.5 0-4.5-2-4.5-4.5v-18.1c0-2.5 2-4.5 4.5-4.5h18.1c2.5 0 4.5 2 4.5 4.5v18.1zM295.3 258.5c0 2.5-2 4.5-4.5 4.5h-18.1c-2.5 0-4.5-2-4.5-4.5v-18.1c0-2.5 2-4.5 4.5-4.5h18.1c2.5 0 4.5 2 4.5 4.5v18.1zM39 258.5c0 2.5-2 4.5-4.5 4.5H9.6c-2.5 0-4.5-2-4.5-4.5v-18.1c0-2.5 2-4.5 4.5-4.5h24.9c2.5 0 4.5 2 4.5 4.5v18.1zM366.6 257.8c0 2.5-2 4.5-4.5 4.5h-24.9c-2.5 0-4.5-2-4.5-4.5v-18.1c0-2.5 2-4.5 4.5-4.5H362c2.5 0 4.5 2 4.5 4.5v18.1zM327.9 258.5c0 2.5-2 4.5-4.5 4.5h-18.1c-2.5 0-4.5-2-4.5-4.5v-18.1c0-2.5 2-4.5 4.5-4.5h18.1c2.5 0 4.5 2 4.5 4.5v18.1zM87.8 227.3c0 2.5-2 4.5-4.5 4.5H65.2c-2.5 0-4.5-2-4.5-4.5v-18.1c0-2.5 2-4.5 4.5-4.5h18.1c2.5 0 4.5 2 4.5 4.5v18.1zM120.4 227.3c0 2.5-2 4.5-4.5 4.5H97.8c-2.5 0-4.5-2-4.5-4.5v-18.1c0-2.5 2-4.5 4.5-4.5h18.1c2.5 0 4.5 2 4.5 4.5v18.1zM152.9 227.3c0 2.5-2 4.5-4.5 4.5h-18.1c-2.5 0-4.5-2-4.5-4.5v-18.1c0-2.5 2-4.5 4.5-4.5h18.1c2.5 0 4.5 2 4.5 4.5v18.1zM184.8 227.3c0 2.5-2 4.5-4.5 4.5h-18.1c-2.5 0-4.5-2-4.5-4.5v-18.1c0-2.5 2-4.5 4.5-4.5h18.1c2.5 0 4.5 2 4.5 4.5v18.1zM216 227.3c0 2.5-2 4.5-4.5 4.5h-18.1c-2.5 0-4.5-2-4.5-4.5v-18.1c0-2.5 2-4.5 4.5-4.5h18.1c2.5 0 4.5 2 4.5 4.5v18.1zM248.6 227.3c0 2.5-2 4.5-4.5 4.5H226c-2.5 0-4.5-2-4.5-4.5v-18.1c0-2.5 2-4.5 4.5-4.5h18c2.5 0 4.5 2 4.5 4.5v18.1zM280.4 227.3c0 2.5-2 4.5-4.5 4.5h-18.1c-2.5 0-4.5-2-4.5-4.5v-18.1c0-2.5 2-4.5 4.5-4.5h18.1c2.5 0 4.5 2 4.5 4.5v18.1zM56 227.3c0 2.5-2 4.5-4.5 4.5H9.6c-2.5 0-4.5-2-4.5-4.5v-18.1c0-2.5 2-4.5 4.5-4.5h41.8c2.5 0 4.5 2 4.5 4.5v18.1zM366.6 227.3c0 2.5-2 4.5-4.5 4.5h-41.8c-2.5 0-4.5-2-4.5-4.5v-18.1c0-2.5 2-4.5 4.5-4.5H362c2.5 0 4.5 2 4.5 4.5v18.1zM310.9 227.3c0 2.5-2 4.5-4.5 4.5h-18.1c-2.5 0-4.5-2-4.5-4.5v-18.1c0-2.5 2-4.5 4.5-4.5h18.1c2.5 0 4.5 2 4.5 4.5v18.1zM45.1 192.7c0 2.5-2 4.5-4.5 4.5h-31c-2.5 0-4.5-2-4.5-4.5v-7.2c0-2.5 2-4.5 4.5-4.5h31c2.5 0 4.5 2 4.5 4.5v7.2zM77 192.7c0 2.5-2 4.5-4.5 4.5H54.4c-2.5 0-4.5-2-4.5-4.5v-7.2c0-2.5 2-4.5 4.5-4.5h18.1c2.5 0 4.5 2 4.5 4.5v7.2zM108.2 192.7c0 2.5-2 4.5-4.5 4.5H85.6c-2.5 0-4.5-2-4.5-4.5v-7.2c0-2.5 2-4.5 4.5-4.5h18.1c2.5 0 4.5 2 4.5 4.5v7.2zM140.7 192.7c0 2.5-2 4.5-4.5 4.5h-18.1c-2.5 0-4.5-2-4.5-4.5v-7.2c0-2.5 2-4.5 4.5-4.5h18.1c2.5 0 4.5 2 4.5 4.5v7.2zM173.3 192.7c0 2.5-2 4.5-4.5 4.5h-18.1c-2.5 0-4.5-2-4.5-4.5v-7.2c0-2.5 2-4.5 4.5-4.5h18.1c2.5 0 4.5 2 4.5 4.5v7.2zM205.8 192.7c0 2.5-2 4.5-4.5 4.5h-18.1c-2.5 0-4.5-2-4.5-4.5v-7.2c0-2.5 2-4.5 4.5-4.5h18.1c2.5 0 4.5 2 4.5 4.5v7.2zM237.7 192.7c0 2.5-2 4.5-4.5 4.5h-18.1c-2.5 0-4.5-2-4.5-4.5v-7.2c0-2.5 2-4.5 4.5-4.5h18.1c2.5 0 4.5 2 4.5 4.5v7.2zM269.6 192.7c0 2.5-2 4.5-4.5 4.5H247c-2.5 0-4.5-2-4.5-4.5v-7.2c0-2.5 2-4.5 4.5-4.5h18.1c2.5 0 4.5 2 4.5 4.5v7.2zM302.1 192.7c0 2.5-2 4.5-4.5 4.5h-18.1c-2.5 0-4.5-2-4.5-4.5v-7.2c0-2.5 2-4.5 4.5-4.5h18.1c2.5 0 4.5 2 4.5 4.5v7.2zM365.2 192.7c0 2.5-2 4.5-4.5 4.5h-18.1c-2.5 0-4.5-2-4.5-4.5v-7.2c0-2.5 2-4.5 4.5-4.5h18.1c2.5 0 4.5 2 4.5 4.5v7.2zM333.3 192.7c0 2.5-2 4.5-4.5 4.5h-18.1c-2.5 0-4.5-2-4.5-4.5v-7.2c0-2.5 2-4.5 4.5-4.5h18.1c2.5 0 4.5 2 4.5 4.5v7.2z"/></g></g></svg>