<svg xmlns="http://www.w3.org/2000/svg" xmlns:xlink="http://www.w3.org/1999/xlink" viewBox="0 0 178 183.41"><defs><clipPath id="a" transform="translate(-8.79 -18.57)"><path fill="none" d="M197.1 58.67V0H0v207.1h58.67L197.1 58.67z"/></clipPath></defs><title>icon-technology</title><g data-name="Calque 1" style="isolation:isolate"><g clip-path="url(#a)"><circle cx="90.4" cy="80" r="80" fill="#eb6361"/></g><circle cx="90.4" cy="80" r="55.88" fill="#417b9c"/><circle cx="126.76" cy="93.02" r="2.86" fill="#fff"/><path d="M53.21 131.43c-3.34 3.34-21.29 9.19-21.29 9.19s5.85-18 9.19-21.29a8.556 8.556 0 0 1 12.1 12.1z" fill="#fe3d50" opacity=".4"/><path d="M52.84 125.36c-1.56 1.56-12.37 6.74-12.37 6.74s5.18-10.82 6.74-12.37a4 4 0 0 1 5.63 5.63z" fill="#f8e71c"/><path d="M60.53 126.91c-1.7 1.7-5.71-.95-9.81-5.05s-6.76-8.11-5.05-9.81 9.24-2.59 13.35 1.52 3.19 11.64 1.51 13.34z" fill="#534741"/><path d="M36.46 110.1c-2.52-2.41 6.31-18.14 10.32-17s10.93 5.86 8.11 7.36-15.91 12.04-18.43 9.64zM62.47 136.11c2.41 2.52 18.14-6.31 17-10.32s-5.86-10.93-7.36-8.11-12.05 15.91-9.64 18.43z" fill="#ff6c6c"/><path d="M103.31 42.25a192.7 192.7 0 0 0-36.56 28.32c-23.88 23.86-21.27 37.05-11.54 46.78s22.9 12.34 46.78-11.54a192.7 192.7 0 0 0 28.32-36.56z" fill="#fff"/><path d="M115.21 57.35a80.29 80.29 0 0 0 15.1 11.9c9.31-15.78 14-30.13 8.54-35.55s-19.77-.77-35.55 8.54a80.29 80.29 0 0 0 11.91 15.11z" fill="#ff6c6c"/><path d="M104.75 95.5c-23.16 23.24-38.83 17.75-48.24 8.26a24 24 0 0 1-5.76-8.61c-2.83 9.15-.7 15.79 4.76 21.3 9.41 9.5 23.15 12 46.24-11.26a187.83 187.83 0 0 0 27.39-35.67c8.29-14.17 13.76-28.16 10.32-34.26 1.75 11.74-12.55 38.01-34.71 60.24z" fill="#2283f6" opacity=".2"/><circle cx="98.55" cy="101.38" r="12.99" transform="rotate(-45 71.74 102.704)" fill="#2283f6" opacity=".2"/><circle cx="98.55" cy="101.38" r="9.89" transform="rotate(-45 71.74 102.704)" fill="#534741"/><path d="M96.75 85.8a9.88 9.88 0 0 1-16.67-5 9.89 9.89 0 1 0 19.36 0 9.84 9.84 0 0 1-2.69 5z" style="mix-blend-mode:multiply" fill="#534741" opacity=".2"/><ellipse cx="89.76" cy="76.65" rx="4.25" ry="2.34" fill="#fff" opacity=".3"/><circle cx="109.73" cy="90.2" r="1.37" transform="rotate(-45 82.92 91.523)" fill="#2283f6" opacity=".2"/><circle cx="94.46" cy="86.1" r="1.37" transform="rotate(-15 19.53 110.214)" fill="#2283f6" opacity=".2"/><circle cx="83.28" cy="97.28" r="1.37" transform="rotate(-75 66.777 93.727)" fill="#2283f6" opacity=".2"/><circle cx="87.37" cy="112.56" r="1.37" transform="rotate(-45 60.562 113.884)" fill="#2283f6" opacity=".2"/><circle cx="102.64" cy="116.65" r="1.37" transform="rotate(-15 27.716 140.772)" fill="#2283f6" opacity=".2"/><circle cx="113.82" cy="105.47" r="1.37" transform="rotate(-75 97.33 101.912)" fill="#2283f6" opacity=".2"/><path d="M62.34 116c-3.65 3.65-12.54 9.17-13.74 8s4.31-10.09 8-13.74 6.88-3.51 8.08-2.31 1.31 4.4-2.34 8.05z" fill="#ff6c6c"/><path d="M133.04 33.72c1.11 1.77-8.64 5.74-15.61 10.09s-12.37 8-13.85 6.52c-3.68-3.66-.13-4.57 6.84-8.93s21.51-9.45 22.62-7.68z" fill="#fff" opacity=".3"/><circle cx="67.81" cy="28.4" r="3.68" fill="#fff"/><circle cx="90.4" cy="34.57" r="2.06" fill="#fff"/><circle cx="45.78" cy="61.37" r="2.06" fill="#fff"/></g></svg>
