<svg xmlns="http://www.w3.org/2000/svg" xmlns:xlink="http://www.w3.org/1999/xlink" viewBox="0 0 177 181.13"><defs><clipPath id="a" transform="translate(-9.88 -18.66)"><path fill="none" d="M197.1 58.67V0H0v207.1h58.67L197.1 58.67z"/></clipPath></defs><title>icon-music</title><g data-name="Calque 1" style="isolation:isolate"><g clip-path="url(#a)"><circle cx="88.67" cy="80" r="80" fill="#eb6361"/></g><circle cx="88.67" cy="82.89" r="55.88" fill="#417b9c"/><rect x="36.51" y="30.73" width="104.31" height="104.31" rx="12" ry="12" fill="#fff"/><circle cx="88.67" cy="84.89" r="39.32" style="mix-blend-mode:multiply" fill="#417b9c" opacity=".2"/><circle cx="88.67" cy="82.89" r="39.32" fill="#417b9c"/><path d="M70.02 73.18a21 21 0 0 1 18.65-11.32" fill="none" stroke="#203f4c" stroke-miterlimit="10"/><path d="M60.01 72.71a30.41 30.41 0 0 1 28.66-20.22" fill="none" stroke="#21414c" stroke-miterlimit="10"/><circle cx="88.67" cy="82.89" r="13.48" fill="#fff"/><circle cx="88.67" cy="82.89" r="11.82" fill="#eb6361"/><path d="M119.99 42.85v33.9a12 12 0 0 1-4.26 9.17l-7.07 6" fill="none" stroke="#21414c" stroke-miterlimit="10" stroke-width="2"/><rect x="111.59" y="107.69" width="12.46" height="6.63" rx="2" ry="2" transform="rotate(-38.94 86.466 115.643)" fill="#21414c"/><circle cx="119.99" cy="43.84" r="5.7" style="mix-blend-mode:multiply" fill="#fe3d50" opacity=".2"/><circle cx="119.99" cy="42.84" r="5.7" fill="#eb6361"/><circle cx="88.67" cy="83.89" r="2.99" style="mix-blend-mode:multiply" fill="#51e4c2" opacity=".2"/><circle cx="88.67" cy="82.89" r="2.99" fill="#fff"/></g></svg>
