<svg xmlns="http://www.w3.org/2000/svg" xmlns:xlink="http://www.w3.org/1999/xlink" viewBox="0 0 225 188.09"><defs><clipPath id="a" transform="translate(0 -10.96)"><path fill="none" d="M211.04 58.67V0H13.94v207.1h58.67L211.04 58.67z"/></clipPath></defs><title>icon-games</title><g data-name="Calque 1" style="isolation:isolate"><g clip-path="url(#a)"><circle cx="112.49" cy="87.59" r="80" fill="#eb6361"/></g><circle cx="112.49" cy="87.59" r="55.88" fill="#417b9c"/><path d="M112.49 63.04a3.08 3.08 0 0 1-3.08-3.08V3.04a3.08 3.08 0 1 1 6.15 0v56.94a3.08 3.08 0 0 1-3.07 3.06z" fill="#e5f9f4"/><path d="M112.49 108.22c24.8 0 53.38 35.36 69.13 27.24s2.71-69.72-14.82-82.82-35.68 5.29-54.31 5.29-36.78-18.4-54.31-5.29-30.56 74.7-14.82 82.83 44.33-27.25 69.13-27.25z" fill="#fff"/><path d="M181.62 129.31c-15.75 8.12-44.33-31.34-69.13-31.34s-53.38 39.47-69.13 31.34c-4.65-2.4-6.78-9.49-7-18.6-.33 11.06 1.7 19.95 7 22.7 15.75 8.12 44.33-27.24 69.13-27.24s53.38 35.36 69.13 27.24c5.33-2.75 7.36-11.64 7-22.7-.23 9.11-2.35 16.2-7 18.6zM81.51 96.5c-3.6 3.6-5.89 7.84-10.61 7.84s-7-4.23-10.62-7.84-7.84-5.89-7.84-10.61 4.23-7 7.84-10.62 5.89-7.84 10.61-7.84 7 4.23 10.62 7.84 7.84 5.89 7.84 10.61-4.24 7.02-7.84 10.62z" fill="#51e4c2" opacity=".2"/><path d="M81.51 94.45c-3.6 3.6-5.89 7.84-10.61 7.84s-7-4.23-10.62-7.84-7.84-5.89-7.84-10.61 4.23-7 7.84-10.62 5.89-7.84 10.61-7.84 7 4.23 10.62 7.84 7.84 5.89 7.84 10.61-4.24 7.02-7.84 10.62z" fill="#417b9c"/><circle cx="70.89" cy="77.72" r="3.25" fill="#252528" opacity=".3"/><circle cx="79.06" cy="85.89" r="3.25" fill="#252528" opacity=".3"/><circle cx="70.89" cy="94.05" r="3.25" fill="#252528" opacity=".3"/><circle cx="62.72" cy="85.89" r="3.25" fill="#252528" opacity=".3"/><circle cx="70.89" cy="75.66" r="3.25" fill="#fff"/><circle cx="79.06" cy="83.83" r="3.25" fill="#fff"/><circle cx="145.15" cy="79.01" r="3.9" fill="#51e4c2" opacity=".2"/><circle cx="158.81" cy="73.22" r="3.9" fill="#51e4c2" opacity=".2"/><circle cx="146.34" cy="91.81" r="3.9" fill="#51e4c2" opacity=".2"/><circle cx="159.99" cy="86.02" r="3.9" fill="#51e4c2" opacity=".2"/><path fill="#fe3d50" d="M103.84 87.09h4.19M121.13 87.09h-4.19" style="mix-blend-mode:multiply" opacity=".2"/><circle cx="145.15" cy="76.96" r="3.9" fill="#417b9c"/><circle cx="158.81" cy="71.17" r="3.9" fill="#417b9c"/><circle cx="146.34" cy="89.76" r="3.9" fill="#eb6361"/><circle cx="159.99" cy="83.97" r="3.9" fill="#eb6361"/><circle cx="70.89" cy="92" r="3.25" fill="#fff"/><circle cx="62.72" cy="83.83" r="3.25" fill="#fff"/><path fill="#f8e71c" d="M103.84 85.04h4.19"/><path d="M108 89.14h-4.19a2.05 2.05 0 0 1 0-4.1H108a2.05 2.05 0 1 1 0 4.1zM121.13 89.14h-4.19a2.05 2.05 0 0 1 0-4.1h4.19a2.05 2.05 0 1 1 0 4.1z" fill="#51e4c2" opacity=".2"/><path d="M108 87.04h-4.19a2.05 2.05 0 0 1 0-4.1H108a2.05 2.05 0 1 1 0 4.1z" fill="#eb6361"/><path fill="#2283f6" d="M121.13 85.04h-4.19"/><path d="M121.13 87.04h-4.19a2.05 2.05 0 0 1 0-4.1h4.19a2.05 2.05 0 1 1 0 4.1z" fill="#417b9c"/></g></svg>
